<svg width="60" height="60" viewBox="0 0 60 60" fill="none" xmlns="http://www.w3.org/2000/svg">
<rect width="60" height="60" fill="black"/>
<g clip-path="url(#clip0_288_3)">
<path d="M31.1962 45.2526L31.1969 37.0599C32.7641 36.8128 34.2124 36.0747 35.3332 34.9518C38.2696 32.0154 38.2696 27.2373 35.3332 24.301C32.3968 21.3646 27.6188 21.3646 24.6824 24.301C21.7461 27.2373 21.7461 32.0154 24.6824 34.9518C25.8032 36.0747 27.2515 36.8128 28.8187 37.0599L28.8194 45.2526L31.1962 45.2526ZM26.3644 33.2698C25.6436 32.5492 25.1527 31.631 24.9538 30.6314C24.7549 29.6317 24.8569 28.5956 25.2469 27.6539C25.6369 26.7123 26.2974 25.9074 27.1448 25.3411C27.9922 24.7749 28.9886 24.4726 30.0078 24.4726C31.027 24.4726 32.0234 24.7749 32.8708 25.3411C33.7183 25.9074 34.3787 26.7123 34.7687 27.6539C35.1587 28.5956 35.2607 29.6317 35.0618 30.6314C34.8629 31.631 34.372 32.5492 33.6513 33.2698C32.6842 34.2346 31.3739 34.7765 30.0078 34.7765C28.6417 34.7765 27.3314 34.2346 26.3644 33.2698Z" fill="white"/>
</g>
<path d="M30 6.375C16.9535 6.375 6.375 17.2277 6.375 30.6012C6.375 41.3063 13.1461 50.3766 22.5328 53.5828C22.6645 53.6114 22.7989 53.6256 22.9336 53.625C23.809 53.625 24.1465 52.9816 24.1465 52.4227C24.1465 51.8426 24.1254 50.3238 24.1148 48.2988C23.3334 48.482 22.5339 48.5775 21.7313 48.5836C17.1855 48.5836 16.152 45.0504 16.152 45.0504C15.0762 42.2555 13.5258 41.5066 13.5258 41.5066C11.4691 40.0617 13.5152 40.0195 13.6734 40.0195H13.684C16.057 40.2305 17.3016 42.5297 17.3016 42.5297C18.4828 44.5969 20.0648 45.177 21.4781 45.177C22.4126 45.1583 23.3327 44.9426 24.1781 44.5441C24.3891 42.9832 25.0008 41.918 25.6758 41.3063C20.434 40.6945 14.918 38.6168 14.918 29.3355C14.918 26.6883 15.8355 24.5262 17.3438 22.8387C17.1012 22.227 16.2891 19.759 17.5758 16.4262C17.7484 16.3849 17.9258 16.3671 18.1031 16.3734C18.9574 16.3734 20.8875 16.7004 24.0727 18.9152C27.9429 17.8324 32.036 17.8324 35.9062 18.9152C39.0914 16.7004 41.0215 16.3734 41.8758 16.3734C42.0531 16.3671 42.2305 16.3849 42.4031 16.4262C43.6898 19.759 42.8777 22.227 42.6352 22.8387C44.1434 24.5367 45.0609 26.6988 45.0609 29.3355C45.0609 38.6379 39.5344 40.684 34.2715 41.2852C35.1152 42.034 35.8746 43.5105 35.8746 45.7676C35.8746 49.0055 35.843 51.6211 35.843 52.4121C35.843 52.9816 36.1699 53.625 37.0453 53.625C37.187 53.6256 37.3284 53.6115 37.4672 53.5828C46.8645 50.3766 53.625 41.2957 53.625 30.6012C53.625 17.2277 43.0465 6.375 30 6.375Z" fill="white"/>
<defs>
<clipPath id="clip0_288_3">
<rect width="23.9028" height="23.9028" fill="white" transform="translate(18.2676 20.5499) rotate(1)"/>
</clipPath>
</defs>
</svg>
