<svg width="22" height="22" viewBox="0 0 22 22" fill="none" xmlns="http://www.w3.org/2000/svg">
<path d="M12.9523 1.46655C11.4144 1.46655 10.2667 2.72285 10.2667 4.1521V6.62567C8.24985 6.73269 6.40535 7.27042 4.93288 8.11382C4.36544 7.56892 3.60563 7.32695 2.86894 7.32749C2.07021 7.32808 1.25366 7.60486 0.690429 8.23843L0.677539 8.25275L0.664648 8.26707C0.124349 8.94232 -0.0895899 9.8469 0.0544917 10.7449C0.186075 11.5651 0.66107 12.3884 1.48678 12.9278C1.48137 13.0188 1.46673 13.1079 1.46673 13.1999C1.46673 16.8387 5.74353 19.7999 11.0001 19.7999C16.2566 19.7999 20.5334 16.8387 20.5334 13.1999C20.5334 13.1079 20.5188 13.0188 20.5133 12.9278C21.3391 12.3884 21.8141 11.5651 21.9456 10.7449C22.0897 9.8469 21.8758 8.94232 21.3355 8.26707L21.3226 8.25275L21.3097 8.23843C20.7464 7.60477 19.93 7.32808 19.1312 7.32749C18.3944 7.32695 17.6345 7.56872 17.0673 8.11382C15.5948 7.27042 13.7503 6.73269 11.7334 6.62567V4.1521C11.7334 3.43415 12.1479 2.93322 12.9523 2.93322C13.3341 2.93322 13.7993 3.12455 14.5278 3.38009C15.1437 3.59612 15.9452 3.81446 16.9699 3.87996C17.215 4.60455 17.8955 5.13322 18.7001 5.13322C19.7084 5.13322 20.5334 4.30822 20.5334 3.29989C20.5334 2.29155 19.7084 1.46655 18.7001 1.46655C18.0116 1.46655 17.4149 1.85553 17.1016 2.42046C16.2257 2.37195 15.5821 2.19601 15.0133 1.9965C14.3506 1.76401 13.7416 1.46655 12.9523 1.46655ZM2.86894 8.79416C3.15871 8.79394 3.43402 8.86999 3.661 8.99325C2.85141 9.66901 2.23715 10.4586 1.86634 11.3207C1.66945 11.0777 1.55081 10.8048 1.50397 10.5129C1.42494 10.0203 1.57235 9.50832 1.80618 9.20522C2.02716 8.96738 2.43067 8.79448 2.86894 8.79416ZM19.1298 8.79416C19.5682 8.79448 19.973 8.96745 20.1939 9.20522C20.4278 9.50832 20.5752 10.0203 20.4962 10.5129C20.4493 10.8048 20.3307 11.0777 20.1338 11.3207C19.763 10.4586 19.1487 9.66901 18.3391 8.99325C18.5656 8.87013 18.8401 8.79394 19.1298 8.79416ZM7.3334 10.2666C8.14373 10.2666 8.80006 10.9229 8.80006 11.7332C8.80006 12.5436 8.14373 13.1999 7.3334 13.1999C6.52306 13.1999 5.86673 12.5436 5.86673 11.7332C5.86673 10.9229 6.52306 10.2666 7.3334 10.2666ZM14.6667 10.2666C15.4771 10.2666 16.1334 10.9229 16.1334 11.7332C16.1334 12.5436 15.4771 13.1999 14.6667 13.1999C13.8564 13.1999 13.2001 12.5436 13.2001 11.7332C13.2001 10.9229 13.8564 10.2666 14.6667 10.2666ZM14.8415 14.3242C14.3729 15.6934 12.8745 16.8666 11.0001 16.8666C9.12566 16.8666 7.62726 15.6939 7.15866 14.4231C8.00199 15.1073 9.40726 15.5961 11.0001 15.5961C12.5929 15.5961 13.9981 15.1067 14.8415 14.3242Z" fill="#4B6A9B"/>
</svg>
